<svg width="50" height="47" viewBox="0 0 50 47" fill="none" xmlns="http://www.w3.org/2000/svg">
<path d="M12.1875 33.4875C13.9583 32.2146 15.9375 31.2109 18.125 30.4766C20.3125 29.7422 22.6042 29.375 25 29.375C27.3958 29.375 29.6875 29.7422 31.875 30.4766C34.0625 31.2109 36.0417 32.2146 37.8125 33.4875C39.0278 32.1493 39.974 30.6316 40.651 28.9344C41.3281 27.2371 41.6667 25.4257 41.6667 23.5C41.6667 19.159 40.0434 15.4627 36.7969 12.4109C33.5504 9.35919 29.6181 7.83332 25 7.83332C20.3819 7.83332 16.4497 9.35919 13.2031 12.4109C9.9566 15.4627 8.33333 19.159 8.33333 23.5C8.33333 25.4257 8.67187 27.2371 9.34896 28.9344C10.026 30.6316 10.9722 32.1493 12.1875 33.4875ZM25 25.4583C22.9514 25.4583 21.224 24.7974 19.8177 23.4755C18.4115 22.1536 17.7083 20.5299 17.7083 18.6042C17.7083 16.6785 18.4115 15.0547 19.8177 13.7328C21.224 12.4109 22.9514 11.75 25 11.75C27.0486 11.75 28.776 12.4109 30.1823 13.7328C31.5885 15.0547 32.2917 16.6785 32.2917 18.6042C32.2917 20.5299 31.5885 22.1536 30.1823 23.4755C28.776 24.7974 27.0486 25.4583 25 25.4583ZM25 43.0833C22.1181 43.0833 19.4097 42.5693 16.875 41.5411C14.3403 40.513 12.1354 39.1177 10.2604 37.3552C8.38542 35.5927 6.90104 33.5201 5.80729 31.1375C4.71354 28.7549 4.16667 26.209 4.16667 23.5C4.16667 20.791 4.71354 18.2451 5.80729 15.8625C6.90104 13.4799 8.38542 11.4073 10.2604 9.64478C12.1354 7.88228 14.3403 6.48697 16.875 5.45884C19.4097 4.43072 22.1181 3.91666 25 3.91666C27.8819 3.91666 30.5903 4.43072 33.125 5.45884C35.6597 6.48697 37.8646 7.88228 39.7396 9.64478C41.6146 11.4073 43.099 13.4799 44.1927 15.8625C45.2865 18.2451 45.8333 20.791 45.8333 23.5C45.8333 26.209 45.2865 28.7549 44.1927 31.1375C43.099 33.5201 41.6146 35.5927 39.7396 37.3552C37.8646 39.1177 35.6597 40.513 33.125 41.5411C30.5903 42.5693 27.8819 43.0833 25 43.0833Z" fill="#1D1B20"/>
</svg>
